<svg id="visual" viewBox="0 0 960 300" width="960" height="300" xmlns="http://www.w3.org/2000/svg" xmlns:xlink="http://www.w3.org/1999/xlink" version="1.1"><rect x="0" y="0" width="960" height="300" fill="#272f3b"></rect><path d="M0 115L22.8 111C45.7 107 91.3 99 137 98C182.7 97 228.3 103 274 102.7C319.7 102.3 365.3 95.7 411.2 90.5C457 85.3 503 81.7 548.8 84.5C594.7 87.3 640.3 96.7 686 100.8C731.7 105 777.3 104 823 102.3C868.7 100.7 914.3 98.3 937.2 97.2L960 96L960 0L937.2 0C914.3 0 868.7 0 823 0C777.3 0 731.7 0 686 0C640.3 0 594.7 0 548.8 0C503 0 457 0 411.2 0C365.3 0 319.7 0 274 0C228.3 0 182.7 0 137 0C91.3 0 45.7 0 22.8 0L0 0Z" fill="#e5c593"></path><path d="M0 93L22.8 89.5C45.7 86 91.3 79 137 75.8C182.7 72.7 228.3 73.3 274 73.3C319.7 73.3 365.3 72.7 411.2 74.5C457 76.3 503 80.7 548.8 83.3C594.7 86 640.3 87 686 84.8C731.7 82.7 777.3 77.3 823 79.2C868.7 81 914.3 90 937.2 94.5L960 99L960 0L937.2 0C914.3 0 868.7 0 823 0C777.3 0 731.7 0 686 0C640.3 0 594.7 0 548.8 0C503 0 457 0 411.2 0C365.3 0 319.7 0 274 0C228.3 0 182.7 0 137 0C91.3 0 45.7 0 22.8 0L0 0Z" fill="#e7be7d"></path><path d="M0 68L22.8 68.2C45.7 68.3 91.3 68.7 137 67.7C182.7 66.7 228.3 64.3 274 65.7C319.7 67 365.3 72 411.2 70C457 68 503 59 548.8 53.5C594.7 48 640.3 46 686 50.5C731.7 55 777.3 66 823 67.5C868.7 69 914.3 61 937.2 57L960 53L960 0L937.2 0C914.3 0 868.7 0 823 0C777.3 0 731.7 0 686 0C640.3 0 594.7 0 548.8 0C503 0 457 0 411.2 0C365.3 0 319.7 0 274 0C228.3 0 182.7 0 137 0C91.3 0 45.7 0 22.8 0L0 0Z" fill="#e8b767"></path><path d="M0 38L22.8 38C45.7 38 91.3 38 137 40.8C182.7 43.7 228.3 49.3 274 50.2C319.7 51 365.3 47 411.2 42.7C457 38.3 503 33.7 548.8 32.3C594.7 31 640.3 33 686 33.2C731.7 33.3 777.3 31.7 823 31.5C868.7 31.3 914.3 32.7 937.2 33.3L960 34L960 0L937.2 0C914.3 0 868.7 0 823 0C777.3 0 731.7 0 686 0C640.3 0 594.7 0 548.8 0C503 0 457 0 411.2 0C365.3 0 319.7 0 274 0C228.3 0 182.7 0 137 0C91.3 0 45.7 0 22.8 0L0 0Z" fill="#e9b050"></path><path d="M0 21L22.8 23.5C45.7 26 91.3 31 137 32.7C182.7 34.3 228.3 32.7 274 29.3C319.7 26 365.3 21 411.2 20.2C457 19.3 503 22.7 548.8 26C594.7 29.3 640.3 32.7 686 31.7C731.7 30.7 777.3 25.3 823 21.7C868.7 18 914.3 16 937.2 15L960 14L960 0L937.2 0C914.3 0 868.7 0 823 0C777.3 0 731.7 0 686 0C640.3 0 594.7 0 548.8 0C503 0 457 0 411.2 0C365.3 0 319.7 0 274 0C228.3 0 182.7 0 137 0C91.3 0 45.7 0 22.8 0L0 0Z" fill="#eaa937"></path></svg>